<?xml version="1.0" encoding="utf-8"?>
<!-- Generator: Adobe Illustrator 19.0.0, SVG Export Plug-In . SVG Version: 6.00 Build 0)  -->
<svg version="1.1" id="图层_1" xmlns="http://www.w3.org/2000/svg" xmlns:xlink="http://www.w3.org/1999/xlink" x="0px" y="0px"
	 viewBox="-395 203.9 400 400" style="enable-background:new -395 203.9 400 400;" xml:space="preserve">
<style type="text/css">
	.st0{fill:#D8D6D6;}
	.st1{fill:#FFFFFF;}
	.st2{opacity:0.75;}
	.st3{fill:#A5A5A5;}
	.st4{fill:none;stroke:#111111;stroke-width:2.1289;stroke-miterlimit:10;}
	.st5{fill:#111111;}
	.st6{fill:#2252A8;}
	.st7{fill:#3CD821;}
	.st8{fill:#F29955;}
	.st9{fill:#2B2B2B;}
</style>
<g id="bg">
	<g id="XMLID_364_">
		<circle class="st0" cx="-194.1" cy="403" r="190.9"/>
	</g>
	<g id="XMLID_367_">
		<circle class="st1" cx="-194.1" cy="403" r="185.9"/>
	</g>
	<g id="XMLID_368_">
		<g id="XMLID_6_">
			<g id="XMLID_7_">
				<circle class="st1" cx="-194.1" cy="403" r="181.1"/>
			</g>
		</g>
		<g id="XMLID_4_" class="st2">
			<g id="XMLID_5_">
				<circle class="st3" cx="-194.1" cy="403" r="181.1"/>
			</g>
		</g>
	</g>
	<g id="XMLID_373_">
		<path class="st4" d="M-294.7,514"/>
	</g>
	<g id="XMLID_372_">
		<path class="st4" d="M-93.6,514.1"/>
	</g>
	<g id="XMLID_375_">
		<path class="st4" d="M-294.7,514"/>
	</g>
	<g id="XMLID_370_">
		<path class="st4" d="M-93.7,514.1"/>
	</g>
	<g id="XMLID_374_">
		
			<rect x="-304.9" y="509.8" transform="matrix(0.7266 0.6871 -0.6871 0.7266 273.211 350.0598)" class="st5" width="3.3" height="17"/>
	</g>
	<g id="XMLID_401_">
		
			<rect x="-80.6" y="503.6" transform="matrix(0.6871 -0.7266 0.7266 0.6871 -396.781 102.9101)" class="st5" width="3.3" height="17"/>
	</g>
	<g id="XMLID_403_">
		
			<rect x="-41.3" y="431.3" transform="matrix(0.2317 -0.9728 0.9728 0.2317 -458.3001 299.3688)" class="st5" width="3.3" height="17"/>
	</g>
	<g id="XMLID_405_">
		
			<rect x="-43.6" y="349.2" transform="matrix(-0.2857 -0.9583 0.9583 -0.2857 -396.6902 419.7214)" class="st5" width="3.3" height="17"/>
	</g>
	<g id="XMLID_409_">
		
			<rect x="-158.9" y="240.1" transform="matrix(-0.9728 -0.2317 0.2317 -0.9728 -367.8262 453.9532)" class="st5" width="3.3" height="17"/>
	</g>
	<g id="XMLID_415_">
		
			<rect x="-350.1" y="357.6" transform="matrix(-0.2317 0.9728 -0.9728 -0.2317 -73.0615 789.9327)" class="st5" width="3.3" height="17"/>
	</g>
	<g id="XMLID_417_">
		
			<rect x="-347.9" y="439.8" transform="matrix(0.2857 0.9583 -0.9583 0.2857 182.3133 652.0083)" class="st5" width="3.3" height="17"/>
	</g>
	<g id="XMLID_376_">
		
			<rect x="-328.4" y="478.6" transform="matrix(0.524 0.8517 -0.8517 0.524 257.1316 509.8546)" class="st5" width="1.6" height="12.8"/>
	</g>
	<g id="XMLID_419_">
		
			<rect x="-302.6" y="510.4" transform="matrix(0.7266 0.6871 -0.6871 0.7266 272.5582 348.6718)" class="st5" width="1.6" height="12.8"/>
	</g>
	<g id="XMLID_469_">
		
			<rect x="-44.8" y="351.9" transform="matrix(-0.2857 -0.9583 0.9583 -0.2857 -399.9363 418.5132)" class="st5" width="1.6" height="12.8"/>
	</g>
	<g id="XMLID_484_">
		
			<rect x="-120.3" y="258.9" transform="matrix(-0.8797 -0.4756 0.4756 -0.8797 -350.7954 441.8128)" class="st5" width="1.6" height="12.8"/>
	</g>
	<g id="XMLID_489_">
		
			<rect x="-158.5" y="244.3" transform="matrix(-0.9728 -0.2317 0.2317 -0.9728 -369.2009 457.9839)" class="st5" width="1.6" height="12.8"/>
	</g>
	<g id="XMLID_494_">
		
			<rect x="-199.3" y="240" transform="matrix(-0.9996 2.794051e-02 -2.794051e-02 -0.9996 -390.0428 498.1915)" class="st5" width="1.6" height="12.8"/>
	</g>
	<g id="XMLID_499_">
		
			<rect x="-239.6" y="246.5" transform="matrix(-0.9583 0.2857 -0.2857 -0.9583 -395.4162 563.4185)" class="st5" width="1.6" height="12.8"/>
	</g>
	<g id="XMLID_504_">
		
			<rect x="-276.9" y="263.2" transform="matrix(-0.8517 0.524 -0.524 -0.8517 -369.9694 643.818)" class="st5" width="1.6" height="12.8"/>
	</g>
	<g id="XMLID_509_">
		
			<rect x="-308.7" y="288.9" transform="matrix(-0.6871 0.7266 -0.7266 -0.6871 -304.9647 721.8986)" class="st5" width="1.6" height="12.8"/>
	</g>
	<g id="XMLID_514_">
		
			<rect x="-332.7" y="322.1" transform="matrix(-0.4756 0.8797 -0.8797 -0.4756 -200.7415 776.6277)" class="st5" width="1.6" height="12.8"/>
	</g>
	<g id="XMLID_519_">
		
			<rect x="-347.3" y="360.3" transform="matrix(-0.2317 0.9728 -0.9728 -0.2317 -70.0275 788.6703)" class="st5" width="1.6" height="12.8"/>
	</g>
	<g id="XMLID_524_">
		
			<rect x="-351.5" y="400.9" transform="matrix(2.794051e-02 0.9996 -0.9996 2.794051e-02 66.3036 746.4833)" class="st5" width="1.6" height="12.8"/>
	</g>
	<g id="XMLID_529_">
		
			<rect x="-345.1" y="441.3" transform="matrix(0.2857 0.9583 -0.9583 0.2857 183.1391 649.6938)" class="st5" width="1.6" height="12.8"/>
	</g>
	<g id="XMLID_378_">
		<g id="XMLID_371_">
			
				<rect x="-306.5" y="509.8" transform="matrix(0.7266 0.6871 -0.6871 0.7266 273.211 350.0598)" class="st5" width="6.5" height="17"/>
		</g>
		<g id="XMLID_379_">
			
				<rect x="-82.1" y="503.6" transform="matrix(0.6871 -0.7266 0.7266 0.6871 -396.7374 102.9491)" class="st5" width="6.5" height="17"/>
		</g>
		<g id="XMLID_380_">
			
				<rect x="-42.9" y="431.3" transform="matrix(0.2317 -0.9728 0.9728 0.2317 -458.3001 299.3688)" class="st5" width="6.5" height="17"/>
		</g>
		<g id="XMLID_381_">
			
				<rect x="-45.2" y="349.2" transform="matrix(-0.2857 -0.9583 0.9583 -0.2857 -396.6902 419.7214)" class="st5" width="6.5" height="17"/>
		</g>
		<g id="XMLID_388_">
			
				<rect x="-88.3" y="279.1" transform="matrix(-0.7266 -0.6871 0.6871 -0.7266 -344.4856 438.1943)" class="st5" width="6.5" height="17"/>
		</g>
		<g id="XMLID_391_">
			
				<rect x="-160.5" y="240.1" transform="matrix(-0.9728 -0.2317 0.2317 -0.9728 -367.8262 453.9532)" class="st5" width="6.5" height="17"/>
		</g>
		<g id="XMLID_393_">
			
				<rect x="-242.6" y="242.4" transform="matrix(-0.9583 0.2857 -0.2857 -0.9583 -397.0461 559.6513)" class="st5" width="6.5" height="17"/>
		</g>
		<g id="XMLID_394_">
			
				<rect x="-312.7" y="285.4" transform="matrix(-0.6871 0.7266 -0.7266 -0.6871 -308.4944 720.5829)" class="st5" width="6.5" height="17"/>
		</g>
		<g id="XMLID_395_">
			
				<rect x="-351.7" y="357.6" transform="matrix(-0.2317 0.9728 -0.9728 -0.2317 -73.0615 789.9327)" class="st5" width="6.5" height="17"/>
		</g>
		<g id="XMLID_396_">
			
				<rect x="-349.5" y="439.8" transform="matrix(0.2857 0.9583 -0.9583 0.2857 182.3133 652.0083)" class="st5" width="6.5" height="17"/>
		</g>
		<g id="XMLID_377_">
			<path id="XMLID_204_" class="st5" d="M-295.5,514.8C-327,486.3-345,445.5-345,403c0-83.2,67.7-150.9,150.9-150.9
				S-43.2,319.8-43.2,403c0,40-15.5,77.6-43.6,106.1l-1.5-1.5c27.7-28,43-65.2,43-104.6c0-82-66.7-148.8-148.8-148.8
				S-342.9,321-342.9,403c0,41.9,17.8,82.1,48.9,110.2L-295.5,514.8z"/>
		</g>
		<g id="XMLID_402_">
			
				<rect x="-56.1" y="470" transform="matrix(0.4756 -0.8797 0.8797 0.4756 -449.5031 203.086)" class="st5" width="3.3" height="17"/>
		</g>
		<g id="XMLID_404_">
			
				<rect x="-37.1" y="390.2" transform="matrix(-2.794051e-02 -0.9996 0.9996 -2.794051e-02 -434.9568 374.366)" class="st5" width="3.3" height="17"/>
		</g>
		<g id="XMLID_406_">
			
				<rect x="-60.5" y="311.3" transform="matrix(-0.524 -0.8517 0.8517 -0.524 -362.135 437.2931)" class="st5" width="3.3" height="17"/>
		</g>
		<g id="XMLID_407_">
			
				<rect x="-86.7" y="279.1" transform="matrix(-0.7266 -0.6871 0.6871 -0.7266 -344.4856 438.1942)" class="st5" width="3.3" height="17"/>
		</g>
		<g id="XMLID_408_">
			
				<rect x="-120.2" y="254.9" transform="matrix(-0.8797 -0.4756 0.4756 -0.8797 -348.1039 438.6689)" class="st5" width="3.3" height="17"/>
		</g>
		<g id="XMLID_410_">
			
				<rect x="-200.2" y="235.8" transform="matrix(-0.9996 2.794051e-02 -2.794051e-02 -0.9996 -390.2018 493.9928)" class="st5" width="3.3" height="17"/>
		</g>
		<g id="XMLID_411_">
			
				<rect x="-241" y="242.4" transform="matrix(-0.9583 0.2857 -0.2857 -0.9583 -397.0461 559.6513)" class="st5" width="3.3" height="17"/>
		</g>
		<g id="XMLID_412_">
			
				<rect x="-278.9" y="259.3" transform="matrix(-0.8517 0.524 -0.524 -0.8517 -373.0782 641.129)" class="st5" width="3.3" height="17"/>
		</g>
		<g id="XMLID_413_">
			
				<rect x="-311.1" y="285.4" transform="matrix(-0.6871 0.7266 -0.7266 -0.6871 -308.4944 720.5829)" class="st5" width="3.3" height="17"/>
		</g>
		<g id="XMLID_414_">
			
				<rect x="-335.4" y="319" transform="matrix(-0.4756 0.8797 -0.8797 -0.4756 -204.3367 776.7857)" class="st5" width="3.3" height="17"/>
		</g>
		<g id="XMLID_416_">
			
				<rect x="-354.5" y="398.9" transform="matrix(2.794051e-02 0.9996 -0.9996 2.794051e-02 64.2344 748.6457)" class="st5" width="3.3" height="17"/>
		</g>
		<g id="XMLID_418_">
			
				<rect x="-330.9" y="477.6" transform="matrix(0.524 0.8517 -0.8517 0.524 257.3303 511.8284)" class="st5" width="3.3" height="17"/>
		</g>
		<g id="XMLID_397_">
			
				<rect x="-323.9" y="485.6" transform="matrix(0.5679 0.8231 -0.8231 0.5679 265.3253 478.5075)" class="st5" width="1.6" height="12.8"/>
		</g>
		<g id="XMLID_398_">
			
				<rect x="-319.1" y="492.1" transform="matrix(0.6102 0.7923 -0.7923 0.6102 270.8428 446.4901)" class="st5" width="1.6" height="12.8"/>
		</g>
		<g id="XMLID_399_">
			
				<rect x="-313.9" y="498.5" transform="matrix(0.6508 0.7593 -0.7593 0.6508 274.0249 414.0634)" class="st5" width="1.6" height="12.8"/>
		</g>
		<g id="XMLID_400_">
			
				<rect x="-308.4" y="504.6" transform="matrix(0.6896 0.7242 -0.7242 0.6896 274.5682 381.3925)" class="st5" width="1.6" height="12.8"/>
		</g>
		<g id="XMLID_449_">
			
				<rect x="-81.1" y="504.3" transform="matrix(0.6871 -0.7266 0.7266 0.6871 -396.1707 101.4291)" class="st5" width="1.6" height="12.8"/>
		</g>
		<g id="XMLID_450_">
			
				<rect x="-75.7" y="498.2" transform="matrix(0.6481 -0.7616 0.7616 0.6481 -410.6329 120.5736)" class="st5" width="1.6" height="12.8"/>
		</g>
		<g id="XMLID_451_">
			
				<rect x="-70.5" y="491.8" transform="matrix(0.6074 -0.7944 0.7944 0.6074 -423.166 140.2463)" class="st5" width="1.6" height="12.8"/>
		</g>
		<g id="XMLID_452_">
			
				<rect x="-65.6" y="485.2" transform="matrix(0.565 -0.8251 0.8251 0.565 -433.817 160.3572)" class="st5" width="1.6" height="12.8"/>
		</g>
		<g id="XMLID_453_">
			
				<rect x="-61.2" y="478.2" transform="matrix(0.521 -0.8536 0.8536 0.521 -442.6154 180.5607)" class="st5" width="1.6" height="12.8"/>
		</g>
		<g id="XMLID_454_">
			
				<rect x="-57.2" y="471.1" transform="matrix(0.4756 -0.8797 0.8797 0.4756 -449.6016 200.8405)" class="st5" width="1.6" height="12.8"/>
		</g>
		<g id="XMLID_455_">
			
				<rect x="-53.4" y="463.8" transform="matrix(0.4289 -0.9033 0.9033 0.4289 -454.8346 221.0263)" class="st5" width="1.6" height="12.8"/>
		</g>
		<g id="XMLID_456_">
			
				<rect x="-50.1" y="456.4" transform="matrix(0.3811 -0.9245 0.9245 0.3811 -458.3487 240.8637)" class="st5" width="1.6" height="12.8"/>
		</g>
		<g id="XMLID_457_">
			
				<rect x="-47.2" y="448.7" transform="matrix(0.3321 -0.9432 0.9432 0.3321 -460.2975 260.1457)" class="st5" width="1.6" height="12.8"/>
		</g>
		<g id="XMLID_458_">
			
				<rect x="-44.7" y="440.8" transform="matrix(0.2823 -0.9593 0.9593 0.2823 -460.4712 278.8766)" class="st5" width="1.6" height="12.8"/>
		</g>
		<g id="XMLID_459_">
			
				<rect x="-42.6" y="432.9" transform="matrix(0.2317 -0.9728 0.9728 0.2317 -459.4617 296.9124)" class="st5" width="1.6" height="12.8"/>
		</g>
		<g id="XMLID_460_">
			
				<rect x="-40.9" y="424.9" transform="matrix(0.1805 -0.9836 0.9836 0.1805 -457.028 314.0215)" class="st5" width="1.6" height="12.8"/>
		</g>
		<g id="XMLID_461_">
			
				<rect x="-39.6" y="416.9" transform="matrix(0.1288 -0.9917 0.9917 0.1288 -453.5748 330.2593)" class="st5" width="1.6" height="12.8"/>
		</g>
		<g id="XMLID_462_">
			
				<rect x="-38.7" y="408.7" transform="matrix(7.669377e-02 -0.9971 0.9971 7.669377e-02 -448.8619 345.4042)" class="st5" width="1.6" height="12.8"/>
		</g>
		<g id="XMLID_463_">
			
				<rect x="-38.3" y="400.5" transform="matrix(2.441395e-02 -0.9997 0.9997 2.441395e-02 -443.3346 359.4839)" class="st5" width="1.6" height="12.8"/>
		</g>
		<g id="XMLID_464_">
			
				<rect x="-38.3" y="392.3" transform="matrix(-2.794051e-02 -0.9996 0.9996 -2.794051e-02 -437.0775 372.3381)" class="st5" width="1.6" height="12.8"/>
		</g>
		<g id="XMLID_465_">
			
				<rect x="-38.8" y="384.2" transform="matrix(-8.021359e-02 -0.9968 0.9968 -8.021359e-02 -430.3676 384.066)" class="st5" width="1.6" height="12.8"/>
		</g>
		<g id="XMLID_466_">
			
				<rect x="-39.7" y="375.9" transform="matrix(-0.1323 -0.9912 0.9912 -0.1323 -423.0273 394.3066)" class="st5" width="1.6" height="12.8"/>
		</g>
		<g id="XMLID_467_">
			
				<rect x="-41" y="367.8" transform="matrix(-0.184 -0.9829 0.9829 -0.184 -415.4366 403.5525)" class="st5" width="1.6" height="12.8"/>
		</g>
		<g id="XMLID_468_">
			
				<rect x="-42.7" y="359.7" transform="matrix(-0.2352 -0.9719 0.9719 -0.2352 -407.5639 411.5608)" class="st5" width="1.6" height="12.8"/>
		</g>
		<g id="XMLID_470_">
			
				<rect x="-47.3" y="344.1" transform="matrix(-0.3355 -0.942 0.942 -0.3355 -392.2633 424.2713)" class="st5" width="1.6" height="12.8"/>
		</g>
		<g id="XMLID_471_">
			
				<rect x="-50.3" y="336.5" transform="matrix(-0.3843 -0.9232 0.9232 -0.3843 -385.0117 428.995)" class="st5" width="1.6" height="12.8"/>
		</g>
		<g id="XMLID_472_">
			
				<rect x="-53.6" y="328.9" transform="matrix(-0.4321 -0.9018 0.9018 -0.4321 -378.0309 432.6071)" class="st5" width="1.6" height="12.8"/>
		</g>
		<g id="XMLID_473_">
			
				<rect x="-57.3" y="321.6" transform="matrix(-0.4787 -0.878 0.878 -0.4787 -371.5041 435.4265)" class="st5" width="1.6" height="12.8"/>
		</g>
		<g id="XMLID_474_">
			
				<rect x="-61.4" y="314.6" transform="matrix(-0.524 -0.8517 0.8517 -0.524 -365.6963 437.5583)" class="st5" width="1.6" height="12.8"/>
		</g>
		<g id="XMLID_475_">
			
				<rect x="-65.9" y="307.7" transform="matrix(-0.5679 -0.8231 0.8231 -0.5679 -360.6497 438.8822)" class="st5" width="1.6" height="12.8"/>
		</g>
		<g id="XMLID_476_">
			
				<rect x="-70.7" y="301.1" transform="matrix(-0.6102 -0.7923 0.7923 -0.6102 -356.1727 439.7152)" class="st5" width="1.6" height="12.8"/>
		</g>
		<g id="XMLID_477_">
			
				<rect x="-75.9" y="294.7" transform="matrix(-0.6508 -0.7593 0.7593 -0.6508 -352.6265 440.0132)" class="st5" width="1.6" height="12.8"/>
		</g>
		<g id="XMLID_478_">
			
				<rect x="-81.4" y="288.6" transform="matrix(-0.6896 -0.7242 0.7242 -0.6896 -349.8146 440.0468)" class="st5" width="1.6" height="12.8"/>
		</g>
		<g id="XMLID_479_">
			
				<rect x="-87.3" y="282.8" transform="matrix(-0.7266 -0.6871 0.6871 -0.7266 -347.9736 439.8347)" class="st5" width="1.6" height="12.8"/>
		</g>
		<g id="XMLID_480_">
			
				<rect x="-93.4" y="277.4" transform="matrix(-0.7616 -0.6481 0.6481 -0.7616 -347.0547 439.846)" class="st5" width="1.6" height="12.8"/>
		</g>
		<g id="XMLID_481_">
			
				<rect x="-99.7" y="272.2" transform="matrix(-0.7944 -0.6074 0.6074 -0.7944 -346.6966 439.7713)" class="st5" width="1.6" height="12.8"/>
		</g>
		<g id="XMLID_482_">
			
				<rect x="-106.3" y="267.4" transform="matrix(-0.8251 -0.565 0.565 -0.8251 -347.2383 440.0262)" class="st5" width="1.6" height="12.8"/>
		</g>
		<g id="XMLID_483_">
			
				<rect x="-113.3" y="262.9" transform="matrix(-0.8536 -0.521 0.521 -0.8536 -348.7808 440.5154)" class="st5" width="1.6" height="12.8"/>
		</g>
		<g id="XMLID_485_">
			
				<rect x="-127.6" y="255.2" transform="matrix(-0.9033 -0.4289 0.4289 -0.9033 -353.5951 443.4467)" class="st5" width="1.6" height="12.8"/>
		</g>
		<g id="XMLID_486_">
			
				<rect x="-135.1" y="251.8" transform="matrix(-0.9245 -0.3811 0.3811 -0.9245 -356.9022 445.684)" class="st5" width="1.6" height="12.8"/>
		</g>
		<g id="XMLID_487_">
			
				<rect x="-142.9" y="248.8" transform="matrix(-0.9432 -0.3321 0.3321 -0.9432 -360.9046 448.8171)" class="st5" width="1.6" height="12.8"/>
		</g>
		<g id="XMLID_488_">
			
				<rect x="-150.7" y="246.4" transform="matrix(-0.9593 -0.2823 0.2823 -0.9593 -365.0805 452.9018)" class="st5" width="1.6" height="12.8"/>
		</g>
		<g id="XMLID_490_">
			
				<rect x="-166.6" y="242.6" transform="matrix(-0.9836 -0.1805 0.1805 -0.9836 -373.8164 463.9131)" class="st5" width="1.6" height="12.8"/>
		</g>
		<g id="XMLID_491_">
			
				<rect x="-174.7" y="241.3" transform="matrix(-0.9917 -0.1288 0.1288 -0.9917 -378.2353 470.8766)" class="st5" width="1.6" height="12.8"/>
		</g>
		<g id="XMLID_492_">
			
				<rect x="-182.9" y="240.4" transform="matrix(-0.9971 -7.669377e-02 7.669377e-02 -0.9971 -382.5677 478.8495)" class="st5" width="1.6" height="12.8"/>
		</g>
		<g id="XMLID_493_">
			
				<rect x="-191.1" y="240" transform="matrix(-0.9997 -2.441395e-02 2.441395e-02 -0.9997 -386.5597 488.0183)" class="st5" width="1.6" height="12.8"/>
		</g>
		<g id="XMLID_495_">
			
				<rect x="-207.4" y="240.5" transform="matrix(-0.9968 8.021359e-02 -8.021359e-02 -0.9968 -392.7218 509.5109)" class="st5" width="1.6" height="12.8"/>
		</g>
		<g id="XMLID_496_">
			
				<rect x="-215.6" y="241.3" transform="matrix(-0.9912 0.1323 -0.1323 -0.9912 -394.953 521.5939)" class="st5" width="1.6" height="12.8"/>
		</g>
		<g id="XMLID_497_">
			
				<rect x="-223.7" y="242.6" transform="matrix(-0.9829 0.184 -0.184 -0.9829 -396.1929 534.7221)" class="st5" width="1.6" height="12.8"/>
		</g>
		<g id="XMLID_498_">
			
				<rect x="-231.7" y="244.3" transform="matrix(-0.9719 0.2352 -0.2352 -0.9719 -396.3991 548.6147)" class="st5" width="1.6" height="12.8"/>
		</g>
		<g id="XMLID_500_">
			
				<rect x="-247.4" y="249" transform="matrix(-0.942 0.3355 -0.3355 -0.942 -393.2541 578.6421)" class="st5" width="1.6" height="12.8"/>
		</g>
		<g id="XMLID_501_">
			
				<rect x="-255" y="252" transform="matrix(-0.9232 0.3843 -0.3843 -0.9232 -389.5845 594.5676)" class="st5" width="1.6" height="12.8"/>
		</g>
		<g id="XMLID_502_">
			
				<rect x="-262.5" y="255.3" transform="matrix(-0.9018 0.4321 -0.4321 -0.9018 -384.6329 610.7087)" class="st5" width="1.6" height="12.8"/>
		</g>
		<g id="XMLID_503_">
			
				<rect x="-269.8" y="259" transform="matrix(-0.878 0.4787 -0.4787 -0.878 -378.1822 627.127)" class="st5" width="1.6" height="12.8"/>
		</g>
		<g id="XMLID_505_">
			
				<rect x="-283.9" y="267.7" transform="matrix(-0.8231 0.5679 -0.5679 -0.8231 -360.4058 660.4454)" class="st5" width="1.6" height="12.8"/>
		</g>
		<g id="XMLID_506_">
			
				<rect x="-290.4" y="272.5" transform="matrix(-0.7923 0.6102 -0.6102 -0.7923 -348.8487 676.4763)" class="st5" width="1.6" height="12.8"/>
		</g>
		<g id="XMLID_507_">
			
				<rect x="-296.8" y="277.6" transform="matrix(-0.7593 0.6508 -0.6508 -0.7593 -335.8636 692.2924)" class="st5" width="1.6" height="12.8"/>
		</g>
		<g id="XMLID_508_">
			
				<rect x="-302.9" y="283.1" transform="matrix(-0.7242 0.6896 -0.6896 -0.7242 -321.3189 707.4359)" class="st5" width="1.6" height="12.8"/>
		</g>
		<g id="XMLID_510_">
			
				<rect x="-314.2" y="295" transform="matrix(-0.6481 0.7616 -0.7616 -0.6481 -286.9957 735.4322)" class="st5" width="1.6" height="12.8"/>
		</g>
		<g id="XMLID_511_">
			
				<rect x="-319.3" y="301.3" transform="matrix(-0.6074 0.7944 -0.7944 -0.6074 -267.4393 747.6718)" class="st5" width="1.6" height="12.8"/>
		</g>
		<g id="XMLID_512_">
			
				<rect x="-324.1" y="308" transform="matrix(-0.565 0.8251 -0.8251 -0.565 -246.6051 758.7967)" class="st5" width="1.6" height="12.8"/>
		</g>
		<g id="XMLID_513_">
			
				<rect x="-328.6" y="315" transform="matrix(-0.521 0.8536 -0.8536 -0.521 -224.2333 768.5508)" class="st5" width="1.6" height="12.8"/>
		</g>
		<g id="XMLID_515_">
			
				<rect x="-336.4" y="329.4" transform="matrix(-0.4289 0.9033 -0.9033 -0.4289 -176.1991 782.9843)" class="st5" width="1.6" height="12.8"/>
		</g>
		<g id="XMLID_516_">
			
				<rect x="-339.7" y="336.8" transform="matrix(-0.3811 0.9245 -0.9245 -0.3811 -150.7855 787.3472)" class="st5" width="1.6" height="12.8"/>
		</g>
		<g id="XMLID_517_">
			
				<rect x="-342.6" y="344.4" transform="matrix(-0.3321 0.9432 -0.9432 -0.3321 -124.4602 789.7902)" class="st5" width="1.6" height="12.8"/>
		</g>
		<g id="XMLID_518_">
			
				<rect x="-345.2" y="352.3" transform="matrix(-0.2823 0.9593 -0.9593 -0.2823 -97.5273 790.396)" class="st5" width="1.6" height="12.8"/>
		</g>
		<g id="XMLID_520_">
			
				<rect x="-349" y="368.2" transform="matrix(-0.1805 0.9836 -0.9836 -0.1805 -42.5988 784.7203)" class="st5" width="1.6" height="12.8"/>
		</g>
		<g id="XMLID_521_">
			
				<rect x="-350.3" y="376.3" transform="matrix(-0.1288 0.9917 -0.9917 -0.1288 -14.9292 778.5598)" class="st5" width="1.6" height="12.8"/>
		</g>
		<g id="XMLID_522_">
			
				<rect x="-351.1" y="384.5" transform="matrix(-7.669377e-02 0.9971 -0.9971 -7.669377e-02 12.6598 770.1511)" class="st5" width="1.6" height="12.8"/>
		</g>
		<g id="XMLID_523_">
			
				<rect x="-351.5" y="392.6" transform="matrix(-2.441395e-02 0.9997 -0.9997 -2.441395e-02 39.6577 759.3588)" class="st5" width="1.6" height="12.8"/>
		</g>
		<g id="XMLID_525_">
			
				<rect x="-351.1" y="409.1" transform="matrix(8.021359e-02 0.9968 -0.9968 8.021359e-02 91.979 731.3376)" class="st5" width="1.6" height="12.8"/>
		</g>
		<g id="XMLID_526_">
			
				<rect x="-350.3" y="417.2" transform="matrix(0.1323 0.9912 -0.9912 0.1323 116.6944 713.9843)" class="st5" width="1.6" height="12.8"/>
		</g>
		<g id="XMLID_527_">
			
				<rect x="-349" y="425.4" transform="matrix(0.184 0.9829 -0.9829 0.184 140.2787 694.5378)" class="st5" width="1.6" height="12.8"/>
		</g>
		<g id="XMLID_528_">
			
				<rect x="-347.3" y="433.4" transform="matrix(0.2352 0.9719 -0.9719 0.2352 162.4708 673.0847)" class="st5" width="1.6" height="12.8"/>
		</g>
		<g id="XMLID_530_">
			
				<rect x="-342.5" y="449.1" transform="matrix(0.3355 0.942 -0.942 0.3355 202.036 624.5603)" class="st5" width="1.6" height="12.8"/>
		</g>
		<g id="XMLID_531_">
			
				<rect x="-339.6" y="456.7" transform="matrix(0.3843 0.9232 -0.9232 0.3843 218.948 597.9146)" class="st5" width="1.6" height="12.8"/>
		</g>
		<g id="XMLID_532_">
			
				<rect x="-336.2" y="464.1" transform="matrix(0.4321 0.9018 -0.9018 0.4321 233.8739 569.6796)" class="st5" width="1.6" height="12.8"/>
		</g>
		<g id="XMLID_533_">
			
				<rect x="-332.5" y="471.6" transform="matrix(0.4787 0.878 -0.878 0.4787 246.7437 540.3625)" class="st5" width="1.6" height="12.8"/>
		</g>
	</g>
	<g id="XMLID_385_">
		<path id="XMLID_197_" d="M-284.1,486.1v-2.3h6.9v2.3H-284.1z"/>
		<path id="XMLID_199_" d="M-275.3,486.8l2.2-0.3c0.3,1.3,0.7,2.2,1.3,2.7c0.6,0.6,1.4,0.8,2.3,0.8c1.1,0,1.9-0.4,2.7-1.1
			c0.7-0.7,1.1-1.6,1.1-2.7c0-1-0.3-1.9-1-2.5c-0.7-0.7-1.5-1-2.6-1c-0.4,0-1,0.1-1.6,0.2l0.2-2c0.1,0,0.3,0,0.4,0
			c1,0,1.8-0.2,2.6-0.7c0.8-0.5,1.1-1.3,1.1-2.3c0-0.8-0.3-1.5-0.8-2c-0.6-0.5-1.3-0.8-2.2-0.8c-0.9,0-1.6,0.3-2.2,0.8
			s-1,1.4-1.1,2.5l-2.2-0.4c0.3-1.5,0.9-2.7,1.9-3.5s2.2-1.2,3.6-1.2c1,0,1.9,0.2,2.8,0.6c0.8,0.4,1.5,1,1.9,1.8s0.7,1.5,0.7,2.4
			c0,0.8-0.2,1.5-0.6,2.2c-0.4,0.6-1.1,1.2-1.9,1.5c1.1,0.2,1.9,0.8,2.5,1.6c0.6,0.8,0.9,1.8,0.9,2.9c0,1.6-0.6,2.9-1.7,4.1
			c-1.2,1.1-2.6,1.7-4.4,1.7c-1.6,0-2.9-0.5-4-1.4C-274.6,489.5-275.2,488.3-275.3,486.8z"/>
		<path id="XMLID_201_" d="M-261.1,482.6c0-2.2,0.2-3.9,0.7-5.2c0.4-1.3,1.1-2.3,2-3c0.9-0.7,2-1.1,3.3-1.1c1,0,1.8,0.2,2.6,0.6
			c0.7,0.4,1.3,1,1.8,1.7s0.9,1.6,1.1,2.7c0.3,1.1,0.4,2.5,0.4,4.3c0,2.1-0.2,3.9-0.7,5.2s-1.1,2.3-2,3.1c-0.9,0.7-2,1.1-3.3,1.1
			c-1.8,0-3.1-0.6-4.1-1.9C-260.5,488.5-261.1,486-261.1,482.6z M-258.8,482.6c0,3,0.4,5,1.1,6s1.6,1.5,2.6,1.5c1,0,1.9-0.5,2.6-1.5
			c0.7-1,1.1-3,1.1-6s-0.4-5-1.1-6c-0.7-1-1.6-1.5-2.6-1.5c-1,0-1.9,0.4-2.5,1.3C-258.4,477.5-258.8,479.6-258.8,482.6z"/>
	</g>
	<g id="XMLID_387_">
		<path id="XMLID_190_" d="M-310,439.6v-2.3h6.9v2.3H-310z"/>
		<path id="XMLID_192_" d="M-289.5,443v2.2h-12.1c0-0.5,0.1-1.1,0.3-1.6c0.3-0.8,0.8-1.6,1.5-2.4c0.7-0.8,1.7-1.7,2.9-2.8
			c2-1.6,3.3-2.9,4-3.9s1-1.8,1-2.7s-0.3-1.6-1-2.2c-0.6-0.6-1.5-0.9-2.5-0.9c-1.1,0-1.9,0.3-2.6,1c-0.6,0.6-1,1.5-1,2.7l-2.3-0.2
			c0.2-1.7,0.8-3,1.8-3.9s2.4-1.4,4.1-1.4c1.8,0,3.1,0.5,4.2,1.5c1.1,1,1.5,2.2,1.5,3.6c0,0.7-0.1,1.4-0.4,2.2
			c-0.3,0.7-0.8,1.4-1.5,2.2c-0.7,0.8-1.8,1.9-3.5,3.2c-1.3,1.1-2.2,1.9-2.6,2.3c-0.4,0.4-0.7,0.8-0.9,1.2h9.1V443z"/>
		<path id="XMLID_194_" d="M-287.1,436.1c0-2.2,0.2-3.9,0.7-5.2c0.4-1.3,1.1-2.3,2-3c0.9-0.7,2-1.1,3.3-1.1c1,0,1.8,0.2,2.6,0.6
			c0.7,0.4,1.3,1,1.8,1.7c0.5,0.7,0.9,1.6,1.1,2.7c0.3,1.1,0.4,2.5,0.4,4.3c0,2.1-0.2,3.9-0.7,5.2c-0.5,1.3-1.1,2.3-2,3.1
			c-0.9,0.7-2,1.1-3.3,1.1c-1.8,0-3.1-0.6-4.1-1.9C-286.5,442-287.1,439.5-287.1,436.1z M-284.8,436.1c0,3,0.4,5,1.1,6
			c0.7,1,1.6,1.5,2.6,1.5s1.9-0.5,2.6-1.5c0.7-1,1.1-3,1.1-6s-0.4-5-1.1-6c-0.7-1-1.6-1.5-2.6-1.5s-1.9,0.4-2.5,1.3
			C-284.4,431-284.8,433.1-284.8,436.1z"/>
	</g>
	<g id="XMLID_389_">
		<path id="XMLID_183_" d="M-311.7,377.3V375h6.9v2.3H-311.7z"/>
		<path id="XMLID_185_" d="M-294.5,382.8h-2.2v-14.3c-0.5,0.5-1.2,1-2.1,1.5c-0.9,0.5-1.7,0.9-2.4,1.2V369c1.3-0.6,2.4-1.3,3.3-2.1
			c0.9-0.8,1.6-1.7,2-2.4h1.4C-294.5,364.5-294.5,382.8-294.5,382.8z"/>
		<path id="XMLID_187_" d="M-288.8,373.8c0-2.2,0.2-3.9,0.7-5.2c0.4-1.3,1.1-2.3,2-3c0.9-0.7,2-1.1,3.3-1.1c1,0,1.8,0.2,2.6,0.6
			c0.7,0.4,1.3,1,1.8,1.7c0.5,0.7,0.9,1.6,1.1,2.7c0.3,1.1,0.4,2.5,0.4,4.3c0,2.1-0.2,3.9-0.7,5.2c-0.5,1.3-1.1,2.3-2,3.1
			c-0.9,0.7-2,1.1-3.3,1.1c-1.8,0-3.1-0.6-4.1-1.9C-288.2,379.7-288.8,377.2-288.8,373.8z M-286.5,373.8c0,3,0.4,5,1.1,6
			c0.7,1,1.6,1.5,2.6,1.5s1.9-0.5,2.6-1.5c0.7-1,1.1-3,1.1-6s-0.4-5-1.1-6c-0.7-1-1.6-1.5-2.6-1.5s-1.9,0.4-2.5,1.3
			C-286.1,368.7-286.5,370.8-286.5,373.8z"/>
	</g>
	<g id="XMLID_390_">
		<path id="XMLID_180_" d="M-281.8,326.4c0-2.2,0.2-3.9,0.7-5.2c0.4-1.3,1.1-2.3,2-3c0.9-0.7,2-1.1,3.3-1.1c1,0,1.8,0.2,2.6,0.6
			c0.8,0.4,1.3,1,1.8,1.7c0.5,0.7,0.9,1.6,1.1,2.7c0.3,1.1,0.4,2.5,0.4,4.3c0,2.1-0.2,3.9-0.7,5.2c-0.5,1.3-1.1,2.3-2,3.1
			c-0.9,0.7-2,1.1-3.3,1.1c-1.8,0-3.1-0.6-4.1-1.9C-281.2,332.3-281.8,329.8-281.8,326.4z M-279.5,326.4c0,3,0.4,5,1.1,6
			c0.7,1,1.6,1.5,2.6,1.5s1.9-0.5,2.6-1.5c0.7-1,1.1-3,1.1-6s-0.4-5-1.1-6c-0.7-1-1.6-1.5-2.6-1.5s-1.9,0.4-2.5,1.3
			C-279.1,321.3-279.5,323.4-279.5,326.4z"/>
	</g>
	<g id="XMLID_392_">
		<path id="XMLID_175_" d="M-232.5,306.6h-2.2v-14.3c-0.5,0.5-1.2,1-2.1,1.5c-0.9,0.5-1.7,0.9-2.4,1.2v-2.2c1.3-0.6,2.4-1.3,3.3-2.1
			c0.9-0.8,1.6-1.7,2-2.4h1.4V306.6z"/>
		<path id="XMLID_177_" d="M-226.7,297.6c0-2.2,0.2-3.9,0.7-5.2c0.4-1.3,1.1-2.3,2-3c0.9-0.7,2-1.1,3.3-1.1c1,0,1.8,0.2,2.6,0.6
			s1.3,1,1.8,1.7c0.5,0.7,0.9,1.6,1.1,2.7c0.3,1.1,0.4,2.5,0.4,4.3c0,2.1-0.2,3.9-0.7,5.2s-1.1,2.3-2,3.1s-2,1.1-3.3,1.1
			c-1.8,0-3.1-0.6-4.1-1.9C-226.1,303.5-226.7,301-226.7,297.6z M-224.4,297.6c0,3,0.4,5,1.1,6c0.7,1,1.6,1.5,2.6,1.5
			s1.9-0.5,2.6-1.5c0.7-1,1.1-3,1.1-6s-0.4-5-1.1-6c-0.7-1-1.6-1.5-2.6-1.5s-1.9,0.4-2.5,1.3C-224,292.5-224.4,294.6-224.4,297.6z"
			/>
	</g>
	<g id="XMLID_420_">
		<path id="XMLID_170_" d="M-170.5,302.7v2.2h-12.1c0-0.5,0.1-1.1,0.3-1.6c0.3-0.8,0.8-1.6,1.5-2.4c0.7-0.8,1.7-1.7,2.9-2.8
			c2-1.6,3.3-2.9,4-3.9s1-1.9,1-2.7c0-0.9-0.3-1.6-1-2.2c-0.6-0.6-1.5-0.9-2.5-0.9c-1.1,0-1.9,0.3-2.6,1c-0.6,0.6-1,1.5-1,2.7
			l-2.3-0.2c0.2-1.7,0.8-3,1.8-3.9s2.4-1.4,4.1-1.4c1.8,0,3.1,0.5,4.2,1.5s1.5,2.2,1.5,3.6c0,0.7-0.1,1.4-0.4,2.2
			c-0.3,0.7-0.8,1.4-1.5,2.2c-0.7,0.8-1.8,1.9-3.5,3.2c-1.3,1.1-2.2,1.9-2.6,2.3c-0.4,0.4-0.7,0.8-0.9,1.2L-170.5,302.7
			L-170.5,302.7z"/>
		<path id="XMLID_172_" d="M-168.1,295.8c0-2.2,0.2-3.9,0.7-5.2c0.4-1.3,1.1-2.3,2-3c0.9-0.7,2-1.1,3.3-1.1c1,0,1.8,0.2,2.6,0.6
			s1.3,1,1.8,1.7c0.5,0.7,0.9,1.6,1.1,2.7c0.3,1.1,0.4,2.5,0.4,4.3c0,2.1-0.2,3.9-0.7,5.2s-1.1,2.3-2,3.1c-0.9,0.7-2,1.1-3.3,1.1
			c-1.8,0-3.1-0.6-4.1-1.9C-167.5,301.7-168.1,299.2-168.1,295.8z M-165.8,295.8c0,3,0.4,5,1.1,6s1.6,1.5,2.6,1.5s1.9-0.5,2.6-1.5
			s1.1-3,1.1-6s-0.4-5-1.1-6s-1.6-1.5-2.6-1.5s-1.9,0.4-2.5,1.3C-165.4,290.8-165.8,292.8-165.8,295.8z"/>
	</g>
	<g id="XMLID_421_">
		<path id="XMLID_165_" d="M-135.6,325.8l2.2-0.3c0.3,1.3,0.7,2.2,1.3,2.7c0.6,0.6,1.4,0.8,2.3,0.8c1.1,0,1.9-0.4,2.7-1.1
			c0.7-0.7,1.1-1.6,1.1-2.7c0-1-0.3-1.9-1-2.5c-0.7-0.6-1.5-1-2.6-1c-0.4,0-1,0.1-1.6,0.2l0.2-2c0.1,0,0.3,0,0.4,0
			c1,0,1.8-0.2,2.6-0.7c0.8-0.5,1.1-1.3,1.1-2.3c0-0.8-0.3-1.5-0.8-2c-0.6-0.5-1.3-0.8-2.2-0.8c-0.9,0-1.6,0.3-2.2,0.8
			s-1,1.4-1.1,2.5l-2.2-0.4c0.3-1.5,0.9-2.7,1.9-3.5c1-0.8,2.2-1.2,3.6-1.2c1,0,1.9,0.2,2.8,0.6s1.5,1,1.9,1.8
			c0.4,0.8,0.7,1.5,0.7,2.4c0,0.8-0.2,1.5-0.6,2.2c-0.4,0.6-1.1,1.2-1.9,1.5c1.1,0.2,1.9,0.8,2.5,1.6c0.6,0.8,0.9,1.8,0.9,2.9
			c0,1.6-0.6,2.9-1.7,4.1c-1.2,1.1-2.6,1.7-4.4,1.7c-1.6,0-2.9-0.5-4-1.4C-134.8,328.8-135.5,327.3-135.6,325.8z"/>
		<path id="XMLID_167_" d="M-121.4,321.6c0-2.2,0.2-3.9,0.7-5.2c0.4-1.3,1.1-2.3,2-3c0.9-0.7,2-1.1,3.3-1.1c1,0,1.8,0.2,2.6,0.6
			s1.3,1,1.8,1.7c0.5,0.7,0.9,1.6,1.1,2.7c0.3,1.1,0.4,2.5,0.4,4.3c0,2.1-0.2,3.9-0.7,5.2s-1.1,2.3-2,3.1c-0.9,0.7-2,1.1-3.3,1.1
			c-1.8,0-3.1-0.6-4.1-1.9C-120.8,327.5-121.4,325-121.4,321.6z M-119.1,321.6c0,3,0.4,5,1.1,6s1.6,1.5,2.6,1.5s1.9-0.5,2.6-1.5
			s1.1-3,1.1-6s-0.4-5-1.1-6s-1.6-1.5-2.6-1.5s-1.9,0.4-2.5,1.3C-118.8,316.5-119.1,318.6-119.1,321.6z"/>
	</g>
	<g id="XMLID_422_">
		<path id="XMLID_159_" d="M-100.2,376.6v-4.4h-7.9v-2.1l8.3-11.8h1.8v11.8h2.5v2.1H-98v4.4H-100.2z M-100.2,370.2V362l-5.7,8.2
			H-100.2z"/>
		<path id="XMLID_162_" d="M-93.2,367.6c0-2.2,0.2-3.9,0.7-5.2c0.4-1.3,1.1-2.3,2-3c0.9-0.7,2-1.1,3.3-1.1c1,0,1.8,0.2,2.6,0.6
			c0.7,0.4,1.3,1,1.8,1.7c0.5,0.7,0.9,1.6,1.1,2.7c0.2,1.1,0.4,2.5,0.4,4.3c0,2.1-0.2,3.9-0.7,5.2c-0.5,1.3-1.1,2.3-2,3.1
			c-0.9,0.7-2,1.1-3.3,1.1c-1.8,0-3.1-0.6-4.1-1.9C-92.5,373.5-93.2,371.1-93.2,367.6z M-90.8,367.6c0,3,0.4,5,1.1,6
			s1.6,1.5,2.6,1.5s1.9-0.5,2.6-1.5s1.1-3,1.1-6s-0.4-5-1.1-6s-1.6-1.5-2.6-1.5s-1.9,0.4-2.5,1.3C-90.5,362.6-90.8,364.6-90.8,367.6
			z"/>
	</g>
	<g id="XMLID_424_">
		<path id="XMLID_154_" d="M-104.5,435.1l2.4-0.2c0.2,1.1,0.6,2,1.2,2.6s1.4,0.9,2.3,0.9c1.1,0,2-0.4,2.7-1.2
			c0.7-0.8,1.1-1.9,1.1-3.2c0-1.3-0.4-2.3-1.1-3c-0.7-0.7-1.7-1.1-2.8-1.1c-0.7,0-1.4,0.2-2,0.5c-0.6,0.3-1,0.8-1.4,1.3l-2.1-0.3
			l1.8-9.4h9.1v2.1h-7.3l-1,4.9c1.1-0.8,2.2-1.1,3.5-1.1c1.6,0,2.9,0.6,4,1.7s1.6,2.5,1.6,4.3c0,1.7-0.5,3.1-1.4,4.3
			c-1.2,1.5-2.8,2.2-4.8,2.2c-1.7,0-3-0.5-4.1-1.4C-103.8,437.9-104.4,436.6-104.5,435.1z"/>
		<path id="XMLID_156_" d="M-90.3,430.9c0-2.2,0.2-3.9,0.7-5.2c0.5-1.3,1.1-2.3,2-3c0.9-0.7,2-1.1,3.3-1.1c1,0,1.8,0.2,2.6,0.6
			c0.7,0.4,1.3,1,1.8,1.7c0.5,0.7,0.9,1.6,1.1,2.7c0.3,1.1,0.4,2.5,0.4,4.3c0,2.1-0.2,3.9-0.7,5.2c-0.5,1.3-1.1,2.3-2,3.1
			c-0.9,0.7-2,1.1-3.3,1.1c-1.8,0-3.1-0.6-4.1-1.9C-89.7,436.8-90.3,434.3-90.3,430.9z M-88,430.9c0,3,0.4,5,1.1,6s1.6,1.5,2.6,1.5
			s1.9-0.5,2.6-1.5s1.1-3,1.1-6s-0.4-5-1.1-6s-1.6-1.5-2.6-1.5s-1.9,0.4-2.5,1.3C-87.6,425.8-88,427.9-88,430.9z"/>
	</g>
	<g id="XMLID_425_">
		<path id="XMLID_46_" d="M-121.1,476.7l-2.2,0.2c-0.2-0.9-0.5-1.5-0.8-1.9c-0.6-0.6-1.4-1-2.2-1c-0.7,0-1.3,0.2-1.9,0.6
			c-0.7,0.5-1.3,1.3-1.7,2.3s-0.6,2.4-0.6,4.2c0.5-0.8,1.2-1.4,2-1.8s1.6-0.6,2.5-0.6c1.5,0,2.8,0.5,3.8,1.7s1.6,2.5,1.6,4.3
			c0,1.1-0.2,2.2-0.7,3.2s-1.2,1.7-2,2.3c-0.9,0.5-1.8,0.8-2.9,0.8c-1.9,0-3.4-0.7-4.6-2.1s-1.8-3.6-1.8-6.8c0-3.5,0.7-6.1,2-7.7
			c1.1-1.4,2.7-2.1,4.6-2.1c1.4,0,2.6,0.4,3.5,1.2S-121.3,475.3-121.1,476.7z M-130.3,484.6c0,0.8,0.2,1.5,0.5,2.2s0.8,1.2,1.4,1.6
			s1.2,0.6,1.9,0.6c0.9,0,1.8-0.4,2.4-1.1c0.7-0.8,1-1.8,1-3.1c0-1.3-0.3-2.3-1-3s-1.5-1.1-2.5-1.1s-1.9,0.4-2.6,1.1
			C-129.9,482.5-130.3,483.4-130.3,484.6z"/>
		<path id="XMLID_151_" d="M-118.6,481.5c0-2.2,0.2-3.9,0.7-5.2s1.1-2.3,2-3s2-1.1,3.3-1.1c1,0,1.8,0.2,2.6,0.6
			c0.7,0.4,1.3,1,1.8,1.7s0.9,1.6,1.1,2.7c0.3,1.1,0.4,2.5,0.4,4.3c0,2.1-0.2,3.9-0.7,5.2s-1.1,2.3-2,3.1c-0.9,0.7-2,1.1-3.3,1.1
			c-1.8,0-3.1-0.6-4.1-1.9C-117.9,487.4-118.6,484.9-118.6,481.5z M-116.2,481.5c0,3,0.4,5,1.1,6s1.6,1.5,2.6,1.5s1.9-0.5,2.6-1.5
			s1.1-3,1.1-6s-0.4-5-1.1-6s-1.6-1.5-2.6-1.5s-1.9,0.4-2.5,1.3C-115.9,476.4-116.2,478.5-116.2,481.5z"/>
	</g>
	<g id="XMLID_423_">
		<g id="XMLID_430_">
			<path class="st6" d="M-194.1,257.1c-39,0-75.6,15.2-103.2,42.7C-324.8,327.4-340,364-340,403c0,21,4.4,41.3,13,60.3
				c8.3,18.3,20.2,34.5,35.2,48.1l14.3-15.8c-12.8-11.6-23-25.4-30.1-41.1c-7.4-16.2-11.1-33.5-11.1-51.5c0-33.3,13-64.6,36.5-88.1
				c23.5-23.5,54.8-36.5,88.1-36.5c4.8,0,9.5,0.3,14.2,0.8l2.7-21.1C-182.8,257.4-188.4,257.1-194.1,257.1z"/>
		</g>
		<g id="XMLID_431_">
			<path class="st7" d="M-126.4,273.7c-15-7.9-31.3-13.1-48.3-15.3l-2.7,21.1c14.4,1.9,28.2,6.3,40.9,12.9L-126.4,273.7z"/>
		</g>
		<g id="XMLID_433_">
			<path class="st8" d="M-91,299.9c-10-10-21.2-18.3-33.2-24.9l-10.1,18.8c10.2,5.6,19.7,12.7,28.2,21.2
				c23.5,23.5,36.5,54.8,36.5,88.1c0,32.8-12.7,63.8-35.6,87.2l15.2,14.9c26.9-27.4,41.7-63.7,41.7-102.1
				C-48.2,364-63.4,327.4-91,299.9z"/>
		</g>
	</g>
	<g id="XMLID_386_">
		<path id="XMLID_44_" class="st1" d="M-331.4,436.9l-1.1-4.9c-0.6,0.6-1.1,1.2-1.7,1.8l-0.9-0.9c0.5-0.7,1.2-1.4,1.8-2.1l0.7,0.7
			l-1.2-5.1l1.2-0.3l1.6,6.8c0.9-0.2,1.8-0.4,2.5-0.5l-1.2-5.4c2.8-0.6,5-1,6.6-1.3c1.8-0.4,2.9,0.3,3.3,2c0.2,0.8,0.4,1.6,0.5,2.5
			c-0.4,0.2-0.9,0.4-1.4,0.6c-0.1-1-0.2-1.8-0.4-2.5c-0.2-1-0.9-1.4-2-1.2c-1.1,0.2-2.8,0.5-5.1,1l0.9,4.1c4-0.7,7.2,0.1,9.6,2.4
			c-0.3,0.3-0.6,0.7-0.9,1.1c-1.5-1.4-3.1-2.2-4.7-2.4c-1.4-0.2-3.9,0.1-7.4,0.9l0.6,2.4L-331.4,436.9z M-324.3,435.4
			c2-0.8,3.3-0.5,3.9,0.7c0.2,0.4,0.3,0.9,0.4,1.6c-0.4,0.2-0.9,0.4-1.3,0.7c0-0.6-0.1-1.1-0.2-1.5c-0.3-0.7-1.1-0.8-2.5-0.2
			c-0.8,0.3-1.7,1-2.5,2.1c-1.8-0.1-3.5-0.2-4.9-0.3l0.5,2.3l13.8-3.2l0.3,1.2l-15,3.4l-1.1-4.8l1.1-0.3l4.7,0.4
			C-326.1,436.4-325.2,435.7-324.3,435.4z"/>
		<path id="XMLID_126_" class="st1" d="M-335.3,415.8l-0.2-3.1l-2.3-0.9l-0.1-1.5l2.3,0.8l-0.4-7l1.2-0.1l0.5,7.6l4.4,1.6l-0.2-3.6
			l-2.8,0.2l-0.1-1.3l2.8-0.2l-0.3-4.7l1.2-0.1l0.3,4.7l5-0.3c1.4-0.1,2.1,0.5,2.2,1.9c0,0.6,0.1,1.2,0.1,1.9
			c-0.4,0.1-0.8,0.2-1.4,0.4c0-0.7,0-1.3,0-1.9c0-0.7-0.4-1-1.1-1l-4.8,0.3l0.3,5.1l-1.2,0.1l-4.4-1.7l0.2,2.6L-335.3,415.8z
			 M-336.6,418.9c1.3-1.1,2.4-2,3.5-2.8l0.9,1.2c-1.4,0.9-2.5,1.8-3.6,2.7L-336.6,418.9z M-329.8,417.2c0.3-0.5,0.5-0.9,0.7-1.4
			c2.2,0.7,4.7,1.3,7.5,2.1l-0.6,1.4C-324.3,418.5-326.8,417.8-329.8,417.2z M-328.1,406.1c1.3-1.1,2.8-2.2,4.5-3.3l0.9,1.2
			c-1.8,1.1-3.3,2.2-4.6,3.2L-328.1,406.1z M-327.6,412.8l0.6-1.3c1.8,0.9,3.6,1.9,5.3,3l-0.8,1.2
			C-324.1,414.7-325.8,413.8-327.6,412.8z"/>
		<path id="XMLID_132_" class="st1" d="M-329.9,398c-2.1-1.7-4.7-3.2-7.8-4.5l0.5-1.3c1.2,0.5,2.4,1.1,3.4,1.7l12.2,1.2l-0.1,1.3
			l-9.4-0.9c1,0.7,1.9,1.4,2.7,2.1C-328.9,397.6-329.4,397.8-329.9,398z M-332,393.1c-1.5-1.7-3.3-3-5.4-4l0.6-1.2
			c0.6,0.3,1.2,0.7,1.7,1l0.8-7.9l1.2,0.1l-0.8,8.6c1.1,0.8,2.1,1.6,2.9,2.6C-331.4,392.5-331.7,392.8-332,393.1z M-330.8,392.4
			l0.3-3.5c-0.9-0.1-1.7-0.2-2.6-0.3l0.1-1.3c0.9,0.1,1.7,0.2,2.6,0.3l0.5-5.5c2.1,0.3,4.1,0.5,5.8,0.8c1.2,0.2,2.1,0.5,2.5,1
			s0.6,1.2,0.5,2.3c-0.1,0.8-0.2,1.6-0.3,2.5c-0.4,0-0.9,0-1.5,0.1c0.2-1,0.4-1.9,0.4-2.6c0.1-0.6,0-1.1-0.2-1.4
			c-0.3-0.3-0.8-0.5-1.6-0.6c-1.6-0.2-3.1-0.4-4.5-0.6l-0.4,4.1c1.8,0.3,3.2,0.7,4.2,1.4c1.4,0.9,2.6,2.3,3.5,4.2
			c-0.4,0.2-0.8,0.5-1.2,0.9c-0.9-1.8-2-3.1-3.1-3.9c-0.9-0.6-2.1-1-3.5-1.3l-0.3,3.5L-330.8,392.4z"/>
		<path id="XMLID_136_" class="st1" d="M-289.7,297.2l5.5-4.5c-0.4-0.2-0.8-0.3-1.3-0.4l0.6-1.2c0.7,0.2,1.3,0.4,1.9,0.7l5.1-4.1
			l1.6,1.9l-1,0.8l-0.9-1.1l-9.9,8l0.9,1.1l-1,0.8L-289.7,297.2z M-270.2,296.2c0,0.5,0,1,0,1.4c-2.4,0.8-4.7,1-6.8,0.5l-2.7,2.2
			c-0.1,2.2-0.7,4.5-1.8,6.8c-0.4-0.1-0.9-0.2-1.3-0.3c1-1.9,1.7-3.7,2-5.6l-3.5,2.9l-0.7-0.8l3.6-2.9l-0.9-1.1l-2.6,2.1l-0.7-0.8
			l2.6-2.1l-0.9-1.1l-2.9,2.4l-0.7-0.8l2.9-2.4l-0.7-0.9l0.9-0.8l0.7,0.9l3-2.5l-0.7-0.9l0.9-0.8l0.7,0.9l3-2.4l0.7,0.8l-3,2.4
			l0.9,1.1l2.7-2.2l0.7,0.8l-2.7,2.2l0.9,1.1l3.6-2.9l0.7,0.8l-3.6,3C-274.2,297.4-272.2,297.1-270.2,296.2z M-282,297.7l3-2.5
			l-0.9-1.1l-3,2.5L-282,297.7z M-280.5,299.6l3-2.5l-0.9-1.1l-3,2.5L-280.5,299.6z M-279,302.3l-0.3-1.1c1.3-0.7,2.9-1.5,4.8-2.4
			l0.3,1.1C-275.7,300.7-277.3,301.5-279,302.3z M-278.9,305.2l-0.3-1.1c2.1-1.1,4.6-2.3,7.4-3.7l0.3,1.2
			C-274.3,302.9-276.7,304.1-278.9,305.2z"/>
		<path id="XMLID_143_" class="st1" d="M-266.7,279.8c1.2,0.3,2.5,0.6,3.7,1.1l-0.6,1.4c-1.2-0.5-2.4-0.9-3.6-1.3L-266.7,279.8z
			 M-262.4,285.4c0.5,0,1-0.1,1.5-0.1c0.5,2.5,1.1,5,1.6,7.2l-1.5,0.2C-261.3,290.2-261.8,287.8-262.4,285.4z M-258.5,274.3v0.5
			c2.6,1.7,5.2,2.4,7.8,2.1c-0.1,0.6-0.2,1.1-0.3,1.6c-2.7-0.1-5.2-0.8-7.7-2.3c0,2.5-0.8,5.1-2.4,7.8c-0.4-0.2-0.9-0.4-1.4-0.6
			c1.8-2.5,2.6-5.2,2.5-8.2L-258.5,274.3z M-257.4,288.1l0.1-1.3c1.2,0,2.5,0,3.9,0c0.6-1.9,1.1-3.5,1.5-4.9l-7.6,4l-0.6-1.1
			l9.2-4.8l0.6,1.1c-0.6,2-1.1,3.9-1.7,5.7c0.9,0,1.7,0,2.7,0l-0.2,1.4C-252.4,288.1-255.1,288-257.4,288.1z M-258.5,279.9l0.6-1.1
			c1.1,0.4,2.2,0.9,3.3,1.4l-0.6,1.2C-256.4,280.8-257.5,280.3-258.5,279.9z"/>
	</g>
	<g id="XMLID_432_">
		<path id="XMLID_39_" class="st1" d="M-66.3,354.1l0.5,1.2c-1,0.3-1.8,0.5-2.6,0.6c-2.2,2.4-2.8,5.3-2,8.6
			c-0.4-0.1-0.9-0.3-1.5-0.4c-0.5-3.4,0.2-6.1,2-8.1c-2.7,0-5.1-1.6-7-4.8c0.2-0.2,0.5-0.6,0.8-1.1c1.8,3.1,3.9,4.7,6.4,4.7
			C-68.6,354.8-67.5,354.6-66.3,354.1z M-70.6,349.7l1,0.5c-0.4,1.1-0.9,2.2-1.4,3.2l-1.2-0.5C-71.6,351.9-71.1,350.8-70.6,349.7z
			 M-60.3,352.1l0.4,1.2c-1.4,0.5-2.6,0.7-3.6,0.7c-0.1,2.7-0.2,5.4-0.4,7.9l-1.3-0.2c0.3-3.2,0.5-5.8,0.6-7.9
			c-1.8-0.4-3.5-2.1-5.3-5c0.3-0.3,0.6-0.7,0.9-1.1c1.6,2.9,3.2,4.5,4.9,4.9C-63,352.8-61.7,352.7-60.3,352.1z M-66.3,361.4
			c-1.1-0.5-2.2-1-3.2-1.6l0.5-1.1c1,0.6,2,1.1,3.2,1.6L-66.3,361.4z M-63.9,347.1l1.1,0.4c-0.3,0.8-0.7,1.9-1.2,3.3l-1.2-0.5
			C-64.8,349.3-64.3,348.2-63.9,347.1z M-59.4,359c-1-0.5-2-1.1-3.2-1.7l0.6-1.1c1.1,0.7,2.1,1.3,3.1,1.7L-59.4,359z"/>
		<path id="XMLID_106_" class="st1" d="M-67.4,365.5l-0.2,1.2c-1.2-0.2-2.4-0.5-3.6-0.9c0.1-0.3,0.2-0.7,0.3-1.2
			C-69.7,365.1-68.5,365.4-67.4,365.5z M-67.4,368.1l0.7,0.9c-0.7,0.7-1.6,1.4-2.5,2.1l-0.8-1C-69,369.5-68.1,368.8-67.4,368.1z
			 M-66.3,372l0.7,0.9c-0.8,0.7-1.6,1.5-2.4,2.1l-0.7-1C-67.9,373.4-67.1,372.7-66.3,372z M-65.1,375.6l0.8,0.8
			c-0.8,0.9-1.7,1.8-2.6,2.7l-0.9-0.9C-66.9,377.5-66,376.6-65.1,375.6z M-62.9,362.6c0.4,0.7,0.8,1.5,1.2,2.2l2.3-0.6l-0.5-2.1
			l1-0.3l0.5,2.1l2.2-0.6l0.3,1.2l-2.2,0.6l0.4,1.8l-1,0.3l-0.4-1.8l-2,0.5c0.3,0.5,0.6,1,0.9,1.5c-0.5,0.1-0.8,0.2-1.1,0.3
			c0-0.1-0.3-0.6-0.9-1.5l-2.2,0.6c-1.2,0.3-2-0.1-2.3-1.3c-0.1-0.4-0.2-0.9-0.3-1.4c0.3-0.1,0.7-0.3,1.2-0.5c0,0.5,0.1,1,0.2,1.4
			c0.1,0.5,0.5,0.7,1,0.6l1.7-0.4c-0.3-0.6-0.7-1.2-1.2-1.9L-62.9,362.6z M-60.9,367.9l1,0.4c-0.2,0.5-0.3,1.1-0.5,1.6
			c0.7,0,1.5-0.1,2.3-0.3l-0.5-1.9l1.1-0.3l0.5,1.9c0.8-0.2,1.6-0.4,2.3-0.5l0.3,1.2c-0.7,0.2-1.4,0.3-2.3,0.5l0.9,3.5
			c-3,0.7-5,1.2-6,1.7c-0.6,0.3-0.8,0.5-0.8,0.8c0.1,0.2,0.3,0.3,0.6,0.3c0.5,0,1.2-0.1,2.1-0.3c0,0.4-0.1,0.8-0.1,1.2
			c-0.9,0.1-1.7,0.2-2.2,0.2c-1,0-1.6-0.3-1.7-1.1c-0.2-0.9,0.3-1.6,1.7-2.3c0.9-0.4,2.6-0.9,5.1-1.5l-0.6-2.4
			c-1.1,0.2-2.1,0.4-3,0.4c-0.3,0.8-0.6,1.6-0.9,2.4l-1.3-0.5c0.3-0.7,0.6-1.4,0.9-2c-1.7-0.3-3.1-1-4.3-2.2
			c0.2-0.3,0.5-0.7,0.8-1.1c1.1,1.2,2.4,1.9,4,2.1C-61.3,369.2-61.1,368.5-60.9,367.9z"/>
		<path id="XMLID_113_" class="st1" d="M-53.1,407.3l-0.2,4.7c0.6-0.4,1.3-0.8,2-1.2l0.6,1c-0.7,0.5-1.4,1-2.2,1.4l-0.4-0.8
			l-0.2,4.9l-1.2-0.1l0.3-6.4c-0.9,0-1.7-0.1-2.4-0.2l-0.2,5.2c-2.6-0.2-4.7-0.4-6.3-0.5c-1.7-0.1-2.6-1-2.5-2.6
			c0-0.8,0.1-1.6,0.1-2.4c0.4,0,0.9-0.1,1.4-0.2c-0.1,0.9-0.2,1.7-0.3,2.3c0,1,0.4,1.5,1.5,1.6s2.7,0.3,4.9,0.4l0.2-4
			c-3.8-0.3-6.5-1.9-8.1-4.5c0.3-0.2,0.7-0.5,1.1-0.8c1,1.6,2.2,2.8,3.7,3.3c1.3,0.5,3.6,0.9,6.9,1l0.1-2.3L-53.1,407.3z
			 M-59.9,406.9c-2,0.2-3.1-0.3-3.3-1.6c-0.1-0.4-0.1-0.9,0-1.5c0.4-0.1,0.9-0.2,1.3-0.3c-0.2,0.5-0.2,1-0.2,1.4
			c0.1,0.7,0.8,1,2.2,0.8c0.8-0.1,1.8-0.5,2.8-1.2c1.6,0.6,3.1,1.1,4.4,1.5l0.1-2.2l-13.3-0.6l0.1-1.2l14.4,0.7l-0.2,4.6h-1.1
			l-4.2-1.5C-58,406.5-59,406.9-59.9,406.9z"/>
		<path id="XMLID_116_" class="st1" d="M-62.3,417c0.3,2.6,0.7,5.1,1.2,7.4l1.1-6.7l0.9,0.1l-1,6.2l1,0.2l0.8-4.6l0.9,0.1l-0.8,4.6
			l0.8,0.1l-0.2,1.1l-0.8-0.1l-0.6,3.5l-0.8-0.1c0.3,0.9,0.7,1.9,1.1,2.8l-0.9,0.6c-0.5-1.1-0.9-2.3-1.3-3.5l-0.6,3.9l-0.9-0.1
			l0.9-5.7c-0.3-0.9-0.5-1.9-0.7-2.8l-1,6.2l-5.4-0.9l0.2-1.1l0.5,0.1l1.2-7.6l-0.5-0.1l0.2-1.1l4.1,0.7c-0.2-0.9-0.3-1.9-0.4-2.8
			C-63,417.3-62.7,417.1-62.3,417z M-65.8,420.9l-1.2,7.6l1.2,0.2l1.2-7.6L-65.8,420.9z M-63.9,429l1.2-7.4l-0.1-0.3l-1.1-0.2
			l-1.2,7.6L-63.9,429z M-59.8,428.8l0.6-3.4l-1-0.2l-0.2,1.4C-60.3,427.3-60.1,428.1-59.8,428.8z M-52.3,420.7l-1.8,11.2l-4.6-0.8
			l0.2-1.1l0.3,0.1l1.5-9L-57,421l0.2-1.1L-52.3,420.7z M-55.8,421.2l-1.5,9l0.9,0.1l1.5-9L-55.8,421.2z M-54.8,430.6l1.5-9
			l-0.8-0.1l-1.5,9L-54.8,430.6z"/>
	</g>
	<g id="XMLID_429_">
		<path id="XMLID_30_" class="st1" d="M-169.3,271.6l2.4,0.6l0.4-1.6l-3.1-0.8l0.3-1l3.1,0.8l0.4-1.7l-1.7-0.4l0.1-0.6
			c-0.4,0.3-0.8,0.6-1.3,0.8c-0.1-0.3-0.3-0.7-0.5-1.1c1.8-0.9,3.3-2.1,4.7-3.6l1.4,0.4l-0.3,0.3c1,1.4,1.9,2.6,2.6,3.7
			c-0.4,0.2-0.8,0.5-1.1,0.7c-0.8-1.4-1.6-2.6-2.4-3.6c-0.8,0.7-1.7,1.5-2.7,2.2l4.5,1.1l-0.3,1l-2-0.5l-0.4,1.7l2.7,0.7l-0.3,1
			l-2.7-0.7l-0.4,1.6l2.3,0.6l-1.4,5.5l-1.1-0.3l0.2-0.8l-3.5-0.9l-0.2,0.9l-1.1-0.3L-169.3,271.6z M-164.9,273.8l-3.5-0.9l-0.7,2.6
			l3.5,0.9L-164.9,273.8z M-162,270l3.5,0.9c-0.5-1.1-1-2.2-1.5-3.1l1-0.4c0.3,0.5,0.6,1,0.8,1.5c0.9-0.6,1.8-1.1,2.5-1.6l-5.1-1.3
			l0.3-1.1l6.7,1.7l-0.3,1.1c-1.1,0.6-2.2,1.3-3.6,2.1c0.1,0.3,0.3,0.6,0.4,0.9l-0.8,0.3l3.6,0.9l-1.3,3.4c-0.3-0.1-0.7-0.3-1.1-0.4
			l1-2.3l-2.2-0.6l-1.5,5.8c-0.3,1.2-1,1.7-2.2,1.4c-0.5-0.1-1.1-0.3-1.8-0.5c0-0.4,0.1-0.8,0.1-1.2c0.7,0.2,1.2,0.4,1.7,0.5
			c0.6,0.1,0.9-0.1,1.1-0.7l1.4-5.6l-3-0.8L-162,270z"/>
		<path id="XMLID_95_" class="st1" d="M-150.3,281.5l4.1,1.7l4.3,1.5c-0.3,0.3-0.6,0.7-0.9,1l-4.1-1.6l-4.1-1.6
			c-1.7-0.7-2.6-1.7-2.9-3.1c-0.5,0.2-1.4,0.6-2.5,1.3l-0.1-1.4c1.2-0.5,2.1-0.9,2.6-1.1l1.9-4.9l-1.7-0.7l0.4-1.1l2.9,1.1l-2.4,6.3
			C-152.5,280.1-151.7,280.9-150.3,281.5z M-149.6,267.3c0.4,1.2,0.7,2.4,1,3.5l-1.3,0.3c-0.2-1.2-0.5-2.4-0.8-3.6L-149.6,267.3z
			 M-148.5,275.1l3.3,1.3l0.7-1.8l-4.5-1.8l0.4-1l4.5,1.8l0.7-1.9c-1.2-0.4-2.5-0.8-3.8-1.2c0.1-0.3,0.1-0.7,0.2-1.1
			c3.4,1.1,6.3,2.1,8.9,2.7l-0.2,1.1c-1.3-0.4-2.5-0.8-3.9-1.2l-0.8,2l4.6,1.8l-0.4,1l-4.6-1.8l-0.7,1.8l3.3,1.3l-2,5.2l-1.1-0.4
			l0.3-0.7l-5.5-2.1l-0.3,0.7l-1.1-0.4L-148.5,275.1z M-142.3,278.7l-5.5-2.1l-1,2.5l5.5,2.1L-142.3,278.7z"/>
	</g>
	<g id="XMLID_435_">
		<path id="XMLID_73_" class="st9" d="M-223.1,337.8l-0.4-12.2l1.5-0.6l8.8,8.7l-1.6,0.7l-2.6-2.7l-4.4,1.9l0.2,3.7L-223.1,337.8z
			 M-221.9,332.2l3.6-1.5l-2.3-2.4c-0.7-0.7-1.3-1.4-1.7-1.9c0.2,0.7,0.2,1.5,0.3,2.2L-221.9,332.2z"/>
		<path id="XMLID_76_" class="st9" d="M-213,333.7l-2.1-8l1.2-0.3l0.3,1.1c0.4-1,1.1-1.7,2.2-2c0.5-0.1,0.9-0.2,1.4-0.1
			s0.8,0.2,1.1,0.4c0.3,0.2,0.5,0.5,0.7,0.9c0.1,0.2,0.3,0.7,0.4,1.3l1.3,4.9l-1.4,0.4l-1.3-4.9c-0.1-0.6-0.3-1-0.5-1.2
			c-0.2-0.2-0.4-0.4-0.7-0.5c-0.3-0.1-0.6-0.1-1,0c-0.6,0.2-1,0.5-1.4,0.9c-0.4,0.4-0.4,1.2-0.1,2.3l1.1,4.4L-213,333.7z"/>
		<path id="XMLID_78_" class="st9" d="M-204.7,334.9l-0.3-1.3c0.3,0,0.6,0,0.8,0c0.3,0,0.5-0.1,0.7-0.3c0.2-0.1,0.3-0.3,0.4-0.5
			c0.1-0.2,0.2-0.5,0.3-1.1c0-0.1,0-0.2,0.1-0.4l-4.2-7.8l1.5-0.2l2.3,4.5c0.3,0.6,0.6,1.2,0.8,1.8c0.1-0.7,0.2-1.3,0.3-1.9l1.1-5
			l1.4-0.2l-2,8.8c-0.2,0.9-0.4,1.6-0.5,2c-0.2,0.5-0.4,0.9-0.7,1.1c-0.3,0.3-0.7,0.4-1.1,0.5C-204.1,335-204.4,335-204.7,334.9z"/>
		<path id="XMLID_80_" class="st9" d="M-198,330.7l0.2-8.3h1.3v1.2c0.3-0.4,0.6-0.7,1.1-1c0.4-0.2,0.9-0.3,1.5-0.3s1.1,0.2,1.5,0.4
			c0.4,0.3,0.7,0.6,0.8,1.1c0.7-0.9,1.5-1.4,2.6-1.4c0.8,0,1.4,0.3,1.9,0.7c0.4,0.5,0.6,1.2,0.6,2.1l-0.2,5.7h-1.4l0.1-5.2
			c0-0.6,0-1-0.1-1.2c-0.1-0.2-0.2-0.5-0.5-0.6c-0.2-0.2-0.5-0.2-0.8-0.2c-0.6,0-1.1,0.2-1.5,0.5c-0.4,0.4-0.6,1-0.6,1.8l-0.1,4.8
			h-1.4l0.1-5.4c0-0.6-0.1-1.1-0.3-1.4c-0.2-0.3-0.6-0.5-1.1-0.5c-0.4,0-0.8,0.1-1.1,0.3c-0.3,0.2-0.6,0.5-0.8,0.9
			c-0.2,0.4-0.3,1-0.3,1.7l-0.1,4.3H-198z"/>
		<path id="XMLID_82_" class="st9" d="M-179.6,329.8l1.4,0.5c-0.4,0.8-0.9,1.4-1.6,1.7c-0.7,0.3-1.5,0.4-2.5,0.2
			c-1.2-0.2-2.1-0.8-2.6-1.6s-0.7-2-0.4-3.3c0.3-1.4,0.8-2.4,1.7-3c0.9-0.6,1.8-0.8,3-0.6c1.1,0.2,1.9,0.8,2.4,1.6
			c0.5,0.9,0.7,2,0.4,3.3c0,0.1,0,0.2-0.1,0.4l-6.1-1.2c-0.1,0.9,0,1.6,0.4,2.2s0.9,0.9,1.6,1c0.5,0.1,1,0,1.4-0.1
			C-180.3,330.7-179.9,330.3-179.6,329.8z M-183.7,326.7l4.5,0.9c0.1-0.7,0-1.2-0.2-1.6c-0.3-0.6-0.9-1-1.6-1.1
			c-0.6-0.1-1.2,0-1.7,0.3C-183.2,325.4-183.5,326-183.7,326.7z"/>
		<path id="XMLID_85_" class="st9" d="M-174.2,332.8l-0.2,1.2c-0.4,0-0.8-0.1-1.1-0.2c-0.5-0.1-0.8-0.3-1.1-0.6
			c-0.3-0.3-0.4-0.5-0.4-0.8c0-0.3,0.1-0.8,0.3-1.6l1.4-4.6l-1-0.3l0.3-1l1,0.3l0.6-2l1.6-0.4l-0.8,2.8l1.4,0.4l-0.3,1l-1.4-0.4
			l-1.4,4.6c-0.1,0.4-0.2,0.6-0.2,0.8c0,0.1,0.1,0.2,0.2,0.3c0.1,0.1,0.2,0.2,0.4,0.2C-174.7,332.7-174.5,332.7-174.2,332.8z"/>
		<path id="XMLID_87_" class="st9" d="M-173.7,334.3l2.9-7.7l1.2,0.4l-0.4,1.2c0.5-0.4,0.9-0.7,1.2-0.8s0.6-0.1,0.9,0.1
			c0.4,0.2,0.8,0.5,1.2,0.9l-0.9,1c-0.2-0.3-0.5-0.5-0.9-0.7c-0.3-0.1-0.6-0.1-0.9,0c-0.3,0.1-0.5,0.3-0.8,0.5
			c-0.3,0.4-0.6,0.9-0.8,1.4l-1.5,4.1L-173.7,334.3z"/>
		<path id="XMLID_89_" class="st9" d="M-163,336.1l1.2,0.8c-0.6,0.7-1.3,1-2,1.2c-0.7,0.2-1.6,0-2.4-0.4c-1.1-0.5-1.8-1.3-2.1-2.3
			s-0.1-2.1,0.5-3.3c0.6-1.2,1.4-2,2.4-2.4c1-0.4,2-0.3,3,0.2s1.6,1.2,1.9,2.2c0.3,1,0.1,2.1-0.5,3.3c0,0.1-0.1,0.2-0.2,0.3
			l-5.5-2.8c-0.4,0.8-0.5,1.6-0.3,2.2c0.2,0.6,0.6,1.1,1.2,1.4c0.5,0.2,0.9,0.3,1.4,0.2C-163.9,336.8-163.5,336.6-163,336.1z
			 M-166.1,332l4.1,2.1c0.3-0.6,0.3-1.2,0.2-1.6c-0.2-0.7-0.5-1.2-1.2-1.5c-0.6-0.3-1.2-0.3-1.7-0.2
			C-165.3,331-165.7,331.4-166.1,332z"/>
	</g>
	<g id="XMLID_437_">
		<path id="XMLID_47_" class="st9" d="M-220.6,353.3v-1.8h6.5v-0.1v-1h3.1v1v0.1h6.5v1.8h-5.7c1,1.2,3.1,2,6.1,2.6v1.6
			c-4-0.4-6.8-1.4-8.4-2.9c-1.6,1.5-4.3,2.5-8.4,2.9v-1.6c3.1-0.6,5.1-1.5,6.1-2.6H-220.6z M-220.4,344v-1.7h3.2c0,0,0-0.1-0.1-0.3
			c-0.1-0.4-0.1-0.7-0.1-0.9h2.8c0,0.4,0.1,0.8,0.3,1.2h3.6c0.1-0.4,0.2-0.8,0.3-1.2h2.9c0,0.5-0.1,0.9-0.3,1.2h3.3v1.7h-6.5v1.2
			h5.7v1.7h-5.7v1.3h6.9v1.7h-16.6v-1.7h6.8v-1.3h-5.4v-1.7h5.4V344H-220.4z"/>
		<path id="XMLID_50_" class="st9" d="M-200.8,357.7v-7.3c-0.1,0.1-0.4,0.2-0.8,0.4c-0.3,0.1-0.5,0.2-0.7,0.2v-1.6
			c1.3-0.8,2.2-2.1,2.7-3.8h2.3c-0.2,1-0.6,1.8-1.1,2.6v9.5L-200.8,357.7L-200.8,357.7z M-202.2,346.3v-1.5c1.3-0.9,2.1-2.2,2.6-3.9
			h2.4C-197.9,343.8-199.5,345.6-202.2,346.3z M-198.1,356.8c0.4-1.3,0.8-2.7,0.9-4.3h1.8c-0.2,1.8-0.5,3.2-0.8,4.3H-198.1z
			 M-197.5,351.9v-1.6h12v1.6H-197.5z M-197.2,343.8v-1.6h4.4v-1.3h2.5v1.3h4.6v1.6h-4.6v0.8h4.3v2.7c0.1,1.6-0.6,2.4-2,2.3h-9v-4.9
			h4.2v-0.8h-4.4V343.8z M-192.9,357.4c-1.5,0-2.2-0.6-2.1-2v-2.8h2.3v2.4c0,0.6,0.3,0.9,0.9,0.9h1.4c0.5,0,0.8-0.2,0.7-0.7v-0.3
			h1.7v0.7c0,1.2-0.6,1.8-2,1.7h-2.9L-192.9,357.4L-192.9,357.4z M-195,348h1.2v-1.8h-1.2V348z M-192.1,346.1v1.8h1.1v-1.8H-192.1z
			 M-191,354.7c-0.1-0.7-0.3-1.4-0.6-2.1h2c0.3,0.7,0.6,1.4,0.7,2.1H-191z M-188.1,346.1h-1.2v1.8h0.4c0.5,0,0.7-0.2,0.7-0.7v-1.1
			H-188.1z M-187.2,356.8c-0.2-1.7-0.5-3.2-0.9-4.3h1.8c0.5,1.5,0.8,2.9,1.1,4.3H-187.2z"/>
		<path id="XMLID_62_" class="st9" d="M-183.2,356.1v-14.2h6.7v11.8c0.1,1.7-0.7,2.5-2.5,2.4H-183.2z M-180.7,343.7v4.2h1.8v-4.2
			H-180.7z M-180.7,354.5h1c0.6,0,0.8-0.3,0.8-0.8v-4.1h-1.8V354.5z M-175.9,345.3v-1.8h4.7v-2.6h2.8v2.5h1.6v1.8h-1.6v9.6
			c0,1.7-0.8,2.6-2.4,2.5h-2.8v-1.7h1.5c0.6,0,0.9-0.3,0.9-0.9v-9.5L-175.9,345.3L-175.9,345.3z M-174.6,352
			c-0.2-1.8-0.6-3.5-1.2-5.2h2.3c0.7,1.7,1.2,3.5,1.5,5.2H-174.6z"/>
		<path id="XMLID_68_" class="st9" d="M-165,351.5c0-1.3,0.5-2.4,1.4-3.3c0.9-0.9,2-1.3,3.3-1.3s2.4,0.5,3.3,1.3
			c0.9,0.8,1.4,2,1.4,3.3c0,1.3-0.5,2.4-1.4,3.3c-0.9,0.9-2,1.3-3.3,1.3s-2.4-0.5-3.3-1.3C-164.5,353.8-165,352.8-165,351.5z
			 M-164.4,351.5c0,1.1,0.4,2.1,1.2,2.9s1.8,1.2,2.9,1.2c1.1,0,2.1-0.4,2.9-1.2c0.8-0.8,1.2-1.7,1.2-2.9c0-1.1-0.4-2.1-1.2-2.9
			s-1.7-1.2-2.9-1.2c-1.1,0-2.1,0.4-2.9,1.2C-164,349.4-164.4,350.3-164.4,351.5z M-158,354.3h-1.1l-0.6-1.4
			c-0.2-0.3-0.3-0.6-0.5-0.8c-0.2-0.2-0.3-0.3-0.5-0.3h-0.5v2.4h-0.9v-5.9h1.7c0.7,0,1.2,0.1,1.6,0.4s0.6,0.7,0.6,1.2
			c0,0.4-0.1,0.7-0.4,1c-0.3,0.3-0.6,0.5-1.1,0.6c0.2,0,0.3,0.2,0.5,0.3c0.2,0.2,0.3,0.4,0.5,0.8L-158,354.3z M-161.3,349.2v1.9h0.9
			c0.4,0,0.7-0.1,0.9-0.2c0.2-0.2,0.3-0.4,0.3-0.7c0-0.3-0.1-0.6-0.3-0.7s-0.5-0.2-1-0.2h-0.8L-161.3,349.2L-161.3,349.2z"/>
	</g>
	<g id="XMLID_438_">
		<path id="XMLID_16_" class="st9" d="M-225.2,364.5h-2.9v8.8h-1.3v-8.8h-2.8v-1.1h7V364.5z"/>
		<path id="XMLID_18_" class="st9" d="M-216.1,373.2h-1.3v-4.5h-5v4.5h-1.3v-9.9h1.3v4.3h5v-4.3h1.3V373.2z"/>
		<path id="XMLID_20_" class="st9" d="M-208,373.2h-5.7v-1.1h2.2v-7.5l-2.3,0.7v-1.2l3.5-1v9h2.2v1.1H-208z"/>
		<path id="XMLID_22_" class="st9" d="M-206.6,368.5c0-1.7,0.3-3.1,0.9-4c0.6-0.9,1.4-1.3,2.5-1.3c2.1,0,3.1,1.7,3.1,5.1
			c0,1.7-0.3,2.9-0.9,3.8c-0.6,0.9-1.4,1.3-2.5,1.3c-1,0-1.8-0.4-2.3-1.3C-206.3,371.3-206.6,370.1-206.6,368.5z M-205.3,368.4
			c0,2.6,0.7,3.9,2,3.9s2-1.3,2-4c0-2.8-0.6-4.1-1.9-4.1C-204.6,364.2-205.3,365.6-205.3,368.4z"/>
		<path id="XMLID_25_" class="st9" d="M-192.6,373.2h-5.7v-1.1h2.2v-7.5l-2.3,0.7v-1.2l3.5-1v9h2.2v1.1H-192.6z"/>
		<path id="XMLID_27_" class="st9" d="M-190.5,373.2v-9.9h2.9c0.9,0,1.6,0.2,2.1,0.6c0.5,0.4,0.8,1,0.8,1.7c0,0.5-0.2,1-0.5,1.4
			s-0.7,0.7-1.3,0.9l0,0c0.7,0.1,1.2,0.3,1.6,0.8c0.4,0.4,0.6,1,0.6,1.6c0,0.9-0.3,1.5-0.9,2.1s-1.4,0.8-2.3,0.8H-190.5
			L-190.5,373.2z M-189.3,364.4v3.1h1.2c0.6,0,1.1-0.1,1.5-0.5c0.4-0.3,0.5-0.7,0.5-1.2c0-0.9-0.6-1.4-1.9-1.4L-189.3,364.4
			L-189.3,364.4z M-189.3,368.7v3.5h1.5c0.7,0,1.2-0.2,1.5-0.5c0.4-0.3,0.5-0.7,0.5-1.3c0-1.1-0.8-1.7-2.3-1.7H-189.3z"/>
		<path id="XMLID_32_" class="st9" d="M-178.8,363.4h4v8.7h-3v0.9h-1V363.4z M-175.7,364.3h-2.1v2.9h2.1V364.3z M-175.7,371.1v-3
			h-2.1v3H-175.7z M-174.9,375c-0.2-0.2-0.5-0.5-0.8-0.8c1-0.9,1.7-1.9,2.1-2.7c0.3-0.8,0.5-2.2,0.5-4V363h5.6v10.4
			c0,1-0.5,1.5-1.5,1.5c-0.6,0-1.3,0-2.2,0c-0.1-0.3-0.1-0.7-0.2-1c0.8,0.1,1.5,0.1,2,0.1s0.8-0.3,0.8-0.8v-2.5h-3.8
			C-172.7,372.2-173.5,373.7-174.9,375z M-172.3,369.7h3.7v-2.4h-3.6C-172.2,368.1-172.2,368.9-172.3,369.7z M-168.6,363.9h-3.6v2.4
			h3.6V363.9z"/>
		<path id="XMLID_40_" class="st9" d="M-166.4,373.1c0.9-0.1,1.7-0.2,2.6-0.3v-2.2h-2.3v-0.9h2.3v-1.6h1v1.6h2.4v0.9h-2.4v2.1
			c0.8-0.1,1.7-0.2,2.5-0.3c0,0.2,0,0.5,0.1,0.9c-1.8,0.2-3.8,0.5-6,0.8L-166.4,373.1z M-166.3,363h6v0.9h-2.9
			c-0.6,1.2-1.1,2.2-1.6,2.9c1-0.1,2-0.1,2.8-0.1c-0.2-0.5-0.5-1-0.7-1.5l0.8-0.4c0.6,1.1,1.1,2.2,1.6,3.3c-0.3,0.2-0.6,0.3-0.9,0.4
			c-0.1-0.3-0.3-0.7-0.4-1c-1.3,0.1-2.4,0.2-3.3,0.3c-0.3,0.1-0.6,0.1-0.9,0.2l-0.5-0.9c0.3-0.2,0.6-0.4,0.8-0.7
			c0.4-0.7,0.8-1.5,1.3-2.5h-2.1L-166.3,363L-166.3,363z M-160.5,367c0.8-1.4,1.5-3,2-4.7l0.9,0.3c-0.2,0.7-0.5,1.4-0.8,2h4.4v0.9
			h-1.2c-0.1,2.7-0.6,4.8-1.6,6.2c0.8,0.9,1.8,1.7,3,2.2c-0.3,0.3-0.5,0.7-0.8,0.9c-1.2-0.7-2.1-1.5-2.8-2.3
			c-0.7,0.8-1.8,1.7-3.2,2.4c-0.1-0.2-0.3-0.5-0.6-0.9c1.5-0.7,2.5-1.5,3.2-2.4c-0.8-1.2-1.4-2.8-1.6-4.9c-0.1,0.2-0.3,0.5-0.4,0.7
			C-160,367.5-160.2,367.2-160.5,367z M-157.3,371c0.7-1.3,1.1-3.1,1.2-5.4h-2.6C-158.6,367.9-158.1,369.7-157.3,371z"/>
	</g>
	<g id="XMLID_534_">
		<path id="XMLID_8_" d="M-285.3,508c1.1,0,2,0.4,2.8,1.1s1.2,1.7,1.2,2.8c0,1.1-0.4,2-1.2,2.8s-1.7,1.1-2.8,1.1
			c-1.1,0-2-0.4-2.8-1.1s-1.2-1.7-1.2-2.8c0-1.1,0.4-2.1,1.2-2.8C-287.3,508.4-286.4,508-285.3,508z M-285.3,509.1
			c-0.8,0-1.4,0.3-2,0.8c-0.6,0.5-0.9,1.2-0.9,2s0.3,1.5,0.8,2c0.6,0.6,1.2,0.8,2,0.8c0.8,0,1.5-0.3,2-0.8s0.8-1.2,0.8-2
			s-0.3-1.5-0.8-2S-284.5,509.1-285.3,509.1z M-265.6,518.7h0.6v6.1h-0.6c-0.2-0.7-0.4-1.3-0.8-1.8c-1.5,1.7-3.5,2.6-5.9,2.6
			c-2.5,0-4.6-0.8-6.2-2.4c-1.6-1.6-2.4-3.7-2.4-6.3c0-1.7,0.4-3.3,1.1-4.8c0.7-1.5,1.8-2.6,3.1-3.4c1.3-0.7,2.8-1.1,4.4-1.1
			c1.3,0,2.5,0.3,3.5,0.8s1.9,1.1,2.4,1.8c0.4-0.7,0.6-1.5,0.7-2.2h0.6l0.2,6.6h-0.6c-0.4-2.3-1.2-3.9-2.4-4.9
			c-1.2-0.9-2.5-1.4-4-1.4c-1.8,0-3.3,0.7-4.4,2.2s-1.6,3.6-1.6,6.3c0,2.6,0.6,4.6,1.8,6c1.2,1.4,2.6,2.1,4.4,2.1
			c0.9,0,1.9-0.2,2.9-0.7s1.8-1.2,2.3-2.3C-266,520.8-265.7,519.7-265.6,518.7z"/>
	</g>
</g>
<g id="point">
	<g id="XMLID_439_">
		<circle class="st6" cx="-194.6" cy="403.4" r="23.5"/>
	</g>
	<g id="XMLID_441_">
		<path id="XMLID_13_" class="st6" d="M-191.6,401.4l-5.1,5.5l-40.1-37l-10.7-15.3l16.2,9.6L-191.6,401.4z M-196.8,404.7l3-3.1
			l-38.4-36.1l-9.6-5.7l6.4,9.2L-196.8,404.7z"/>
	</g>
	<g id="XMLID_440_">
		<circle class="st0" cx="-194.6" cy="403.4" r="2.5"/>
	</g>
	<g id="XMLID_442_">
		
			<rect id="XMLID_12_" x="-278.7" y="278.4" transform="matrix(0.6982 -0.7159 0.7159 0.6982 -316.351 -100.9171)" class="st6" width="1.7" height="92.8"/>
	</g>
</g>
</svg>
